<?xml version="1.0" standalone="no"?>
<!DOCTYPE svg PUBLIC "-//W3C//DTD SVG 20010904//EN"
 "http://www.w3.org/TR/2001/REC-SVG-20010904/DTD/svg10.dtd">
<svg version="1.0" xmlns="http://www.w3.org/2000/svg"
 width="612.000000pt" height="612.000000pt" viewBox="0 0 612.000000 612.000000"
 preserveAspectRatio="xMidYMid meet">

<g transform="translate(0.000000,612.000000) scale(0.100000,-0.100000)"
fill="#000000" stroke="none">
<path d="M2575 5721 c-69 -33 -147 -121 -160 -181 -6 -26 -10 -29 -46 -28 -86
1 -199 -131 -199 -233 0 -23 -8 -32 -37 -48 -88 -44 -134 -158 -80 -196 22
-15 22 -15 28 24 7 52 47 110 97 141 34 21 42 31 42 56 1 102 128 239 211 229
24 -3 29 0 34 25 7 31 63 111 104 148 31 27 85 52 114 52 20 0 20 0 1 15 -26
20 -61 18 -109 -4z"/>
<path d="M2758 5575 c-7 -34 3 -38 45 -16 40 21 33 41 -14 41 -21 0 -28 -6
-31 -25z"/>
<path d="M4970 5578 c-24 -10 -23 -11 24 -25 62 -18 157 -112 179 -176 12 -38
17 -41 50 -43 90 -5 197 -126 197 -222 0 -31 5 -41 23 -49 68 -31 136 -128
122 -173 -8 -26 9 -26 35 0 47 47 0 140 -98 196 -23 13 -32 24 -28 37 8 34
-23 111 -66 161 -44 51 -88 76 -135 76 -24 0 -32 8 -51 48 -32 68 -94 136
-147 161 -49 23 -68 25 -105 9z"/>
<path d="M4816 5435 c-18 -13 -18 -15 -3 -15 10 0 29 -7 43 -16 30 -20 34 -17
27 19 -6 31 -35 36 -67 12z"/>
<path d="M2945 5246 c-49 -29 -164 -96 -255 -148 -298 -173 -1071 -619 -1265
-730 -104 -61 -194 -113 -200 -117 -5 -5 -39 -24 -75 -44 -154 -84 -468 -268
-498 -292 -17 -14 -43 -48 -57 -75 -25 -49 -25 -52 -25 -309 0 -206 -3 -262
-14 -273 -24 -24 -158 -142 -182 -161 -14 -10 -24 -29 -24 -43 0 -36 -23 -85
-59 -126 l-31 -36 0 -249 c0 -236 1 -252 20 -276 22 -27 81 -67 105 -71 8 -1
18 -5 21 -9 4 -4 32 -7 63 -7 105 0 101 4 101 -124 0 -124 4 -133 76 -169 l31
-16 -5 134 -5 134 29 39 c16 21 48 61 71 88 123 144 207 256 236 314 l32 65 0
264 0 264 -45 24 c-25 13 -45 29 -45 34 0 6 -17 20 -37 31 l-37 21 -93 -26
c-52 -15 -97 -27 -100 -27 -4 0 -6 52 -5 117 l2 116 30 17 c47 27 378 219 395
230 8 5 65 37 125 71 61 34 128 73 150 87 64 39 344 200 415 239 36 20 70 39
75 44 6 4 57 34 115 67 58 32 188 107 290 166 102 60 203 118 225 131 320 183
554 318 648 374 l87 52 0 83 c0 82 -1 85 -31 111 -45 37 -104 65 -136 65 -15
-1 -68 -25 -118 -54z m130 -157 c4 -6 4 -25 1 -44 -7 -36 -44 -64 -212 -158
-44 -24 -194 -110 -334 -192 -245 -142 -280 -162 -353 -204 -18 -10 -94 -54
-168 -97 -74 -42 -251 -145 -394 -227 -143 -82 -269 -156 -280 -163 -11 -8
-32 -14 -47 -14 -24 0 -28 4 -28 28 0 52 -1 51 350 257 30 18 75 44 100 58 25
13 117 66 205 117 88 51 194 112 235 135 41 23 105 61 143 84 37 22 69 41 72
41 2 0 48 26 102 59 54 32 195 113 313 181 118 67 224 129 235 136 25 16 52
18 60 3z m-1927 -1131 c4 -33 -11 -63 -42 -83 -57 -38 -79 34 -26 87 36 35 64
34 68 -4z m-132 -63 c16 -40 -29 -105 -72 -105 -46 0 -36 68 15 107 22 17 50
16 57 -2z m-130 -80 c9 -22 -15 -74 -42 -92 -30 -19 -64 -9 -64 20 0 22 24 65
44 79 19 13 56 9 62 -7z m34 -545 c0 -26 43 -54 70 -45 l22 7 -4 -244 -3 -244
-37 -75 c-20 -41 -45 -83 -55 -94 -47 -51 -92 -112 -88 -118 3 -4 2 -5 -1 -3
-9 7 -35 -21 -82 -86 -23 -31 -45 -59 -50 -62 -13 -8 -262 13 -283 24 -44 24
-49 56 -49 298 l0 229 26 29 c34 39 51 72 59 116 6 30 25 53 119 135 104 91
118 101 182 117 38 10 89 24 114 31 51 14 60 12 60 -15z"/>
<path d="M790 3252 c-110 -31 -108 -30 -234 -146 -64 -58 -96 -95 -96 -110 0
-24 -50 -115 -74 -135 -14 -12 -16 -43 -16 -220 0 -115 5 -223 11 -244 14 -52
46 -64 189 -72 l115 -6 124 154 c185 229 175 203 179 494 l3 242 -28 3 c-18 2
-34 14 -48 35 -11 18 -22 32 -25 32 -3 -1 -48 -13 -100 -27z m35 -261 c8 -14
-156 -372 -174 -379 -14 -5 -77 59 -102 105 -10 19 -9 26 6 43 10 11 22 20 26
20 4 0 21 -19 38 -42 l30 -41 30 64 c91 200 111 239 125 239 8 0 17 -4 21 -9z"/>
<path d="M4010 5263 c-15 -11 -53 -20 -96 -24 -64 -5 -81 -12 -181 -70 l-111
-64 62 -11 c73 -14 111 -29 189 -76 l58 -36 2 -183 c2 -211 10 -240 81 -288
34 -24 290 -172 496 -289 25 -14 73 -43 108 -64 34 -21 65 -38 67 -38 3 0 47
-25 97 -55 50 -30 98 -55 107 -55 22 0 93 38 109 58 10 12 13 54 11 152 -1
110 1 134 12 132 8 -2 56 -28 108 -59 159 -94 289 -236 357 -390 62 -137 58
-83 61 -885 2 -406 7 -738 11 -738 4 0 59 31 122 68 l115 68 3 728 c2 797 4
778 -57 910 -74 160 -192 285 -366 388 -217 129 -279 165 -323 187 -26 13 -47
32 -53 49 -21 54 -60 91 -161 149 -146 85 -469 272 -628 363 -74 43 -144 81
-155 84 -12 3 -31 -1 -45 -11z m109 -388 c37 -19 81 -71 81 -96 0 -26 -17 -24
-31 4 -19 36 -51 67 -71 67 -32 0 -20 -21 47 -84 68 -64 82 -99 50 -126 -35
-29 -138 44 -151 108 -9 43 11 42 30 -1 14 -35 59 -77 82 -77 32 0 20 25 -40
83 -53 51 -66 69 -66 94 0 47 18 55 69 28z m157 -134 c-3 -32 1 -41 28 -59 55
-37 64 -37 68 0 2 21 8 33 18 33 12 0 16 -20 18 -113 3 -111 2 -113 -18 -102
-16 8 -20 21 -20 59 0 48 -1 50 -46 75 -26 14 -48 26 -49 26 -1 0 -2 -19 -1
-42 1 -32 -3 -43 -14 -43 -12 0 -16 19 -18 99 -3 113 1 134 23 116 8 -7 13
-26 11 -49z m290 -126 c55 -42 94 -160 66 -201 -27 -39 -112 -8 -158 57 -35
52 -45 136 -18 163 22 23 65 15 110 -19z m194 -115 c60 -41 75 -65 68 -111 -4
-32 -39 -36 -84 -10 -29 18 -36 18 -40 6 -4 -8 -3 -22 0 -31 8 -21 -1 -34 -19
-27 -12 4 -15 28 -15 115 0 126 -5 123 90 58z"/>
<path d="M4479 4589 c-16 -31 3 -89 43 -128 38 -37 65 -40 80 -6 22 49 -43
155 -96 155 -8 0 -20 -10 -27 -21z"/>
<path d="M4708 4460 c4 -31 42 -60 77 -60 32 0 8 53 -35 75 -41 21 -47 19 -42
-15z"/>
<path d="M1165 4925 c-50 -18 -136 -107 -161 -169 -18 -42 -22 -46 -54 -46
-83 0 -200 -133 -200 -227 0 -26 -6 -36 -29 -48 -93 -48 -143 -161 -88 -200
22 -15 22 -15 27 23 9 61 51 116 113 148 21 12 27 22 27 48 0 39 51 143 83
169 48 39 84 57 117 57 33 0 37 4 58 54 38 88 140 174 207 176 18 1 17 2 -5
15 -31 18 -45 18 -95 0z"/>
<path d="M3190 4917 c-14 -8 -140 -80 -280 -162 -140 -81 -280 -162 -310 -180
-88 -50 -95 -55 -118 -91 -21 -33 -22 -42 -22 -284 0 -248 0 -250 23 -264 47
-31 74 -30 134 4 32 18 72 41 88 50 17 9 122 70 235 135 113 65 224 129 248
143 23 13 61 42 85 63 l42 40 0 256 0 257 -34 23 c-39 26 -56 28 -91 10z"/>
<path d="M1353 4793 c-12 -4 -19 -53 -8 -53 3 0 21 9 41 19 34 18 34 20 16 30
-22 12 -30 12 -49 4z"/>
<path d="M3560 4533 c0 -38 4 -73 8 -79 4 -6 37 -28 75 -48 l67 -38 0 75 0 75
-71 41 c-39 23 -73 41 -75 41 -2 0 -4 -30 -4 -67z"/>
<path d="M3892 4333 l3 -68 65 -42 c35 -24 70 -43 77 -43 9 0 13 19 13 69 0
68 0 68 -37 93 -120 79 -125 79 -121 -9z"/>
<path d="M4232 4138 l3 -71 73 -43 72 -43 0 73 c0 47 -5 77 -12 84 -15 12
-126 72 -134 72 -3 0 -4 -32 -2 -72z"/>
<path d="M3140 3976 l0 -44 184 -106 c101 -58 190 -108 198 -111 9 -4 84 34
174 86 87 50 160 92 160 93 5 4 11 86 7 90 -5 5 -12 1 -188 -102 -66 -38 -127
-72 -136 -74 -8 -1 -99 45 -201 105 -102 59 -188 107 -192 107 -3 0 -6 -20 -6
-44z"/>
<path d="M4560 3948 l0 -73 71 -40 c39 -22 75 -41 80 -43 5 -2 9 28 9 66 0 53
-4 72 -17 84 -20 17 -127 78 -137 78 -3 0 -6 -33 -6 -72z"/>
<path d="M2893 3809 c-97 -48 -196 -198 -196 -296 0 -152 137 -161 271 -19 96
102 135 237 86 303 -28 38 -99 43 -161 12z m35 -71 c4 -34 -11 -63 -43 -84
-55 -36 -73 40 -23 93 29 31 62 27 66 -9z m26 -94 c11 -4 16 -19 16 -45 0 -41
-17 -59 -111 -113 -59 -33 -69 -33 -69 4 0 58 44 115 110 144 19 8 36 15 37
16 1 0 8 -3 17 -6z"/>
<path d="M4900 3756 l0 -74 68 -41 c38 -22 71 -41 75 -41 4 0 7 32 7 70 l0 70
-52 34 c-105 66 -98 67 -98 -18z"/>
<path d="M2079 3751 c-28 -15 -50 -31 -49 -37 2 -5 31 -26 64 -46 56 -34 62
-36 74 -20 33 43 25 108 -15 123 -16 6 -36 1 -74 -20z"/>
<path d="M4590 3718 c0 -49 -31 -105 -67 -122 -20 -9 -37 -15 -40 -12 -2 2
-22 -16 -45 -39 -46 -51 -68 -113 -68 -195 0 -31 -3 -60 -6 -63 -13 -12 -65
36 -85 78 -21 45 -21 112 0 168 7 18 7 26 1 22 -6 -3 -10 -2 -10 2 0 5 -7 18
-15 29 -15 19 -15 19 -8 -1 3 -11 10 -25 15 -32 6 -8 5 -26 -3 -50 -7 -21 -14
-47 -15 -58 -5 -38 19 -110 51 -150 l32 -40 -42 -37 -42 -37 -199 115 c-109
63 -226 130 -261 150 l-63 35 0 -295 c0 -270 -6 -344 -25 -287 -7 22 -91 101
-107 101 -6 0 -47 18 -93 40 -45 23 -99 43 -118 47 -44 7 -119 -4 -141 -20
-15 -11 -12 -14 21 -32 21 -11 81 -45 133 -76 52 -31 203 -119 335 -194 132
-76 293 -169 357 -206 64 -38 122 -69 128 -69 11 0 61 30 70 41 3 4 11 9 19
11 8 2 55 27 105 56 49 28 94 52 98 52 17 0 7 17 -18 28 -14 7 -22 17 -19 22
4 6 18 2 35 -10 l29 -21 86 50 86 49 -28 21 c-33 24 -14 29 22 5 23 -15 27
-14 64 7 62 35 78 102 40 173 -19 35 -19 39 -4 56 24 27 126 78 160 80 56 4
85 0 85 -11 0 -7 -10 -9 -27 -5 -16 4 -23 3 -17 -1 5 -4 10 -23 10 -42 -1 -20
4 -35 12 -37 7 -1 8 0 2 3 -13 6 -13 50 0 58 17 11 71 -35 77 -66 3 -16 9 -29
14 -29 17 0 -15 61 -44 85 -26 20 -29 25 -15 30 20 8 47 -6 116 -57 42 -33 52
-46 53 -72 1 -22 3 -25 6 -9 5 27 33 20 33 -9 0 -17 3 -18 15 -8 8 7 12 16 10
21 -3 4 3 13 12 19 15 9 12 10 -14 5 -44 -9 -50 11 -11 35 27 16 29 20 12 20
-11 0 -29 -6 -40 -14 -17 -13 -21 -12 -36 1 -17 15 -14 17 32 39 28 13 50 28
50 34 0 7 -9 5 -22 -4 -26 -19 -52 -21 -42 -4 4 6 -3 4 -17 -5 -32 -23 -50
-21 -93 8 -20 14 -43 25 -51 25 -21 0 -27 17 -15 39 6 12 6 22 1 25 -5 4 -12
-6 -15 -21 -6 -26 -10 -28 -61 -29 -54 -1 -116 -21 -167 -56 -36 -25 -41 -23
-33 15 28 126 118 195 268 205 68 4 80 2 93 -14 14 -18 14 -18 4 4 -6 12 -9
33 -6 45 l6 22 -11 -22 c-9 -17 -21 -23 -46 -23 l-34 0 25 33 c38 49 32 56 -6
9 -29 -35 -39 -40 -86 -45 -129 -14 -191 -76 -249 -247 -4 -10 -14 3 -29 35
-24 52 -34 155 -14 155 6 0 10 9 10 19 0 11 10 28 23 38 25 20 42 53 27 53 -6
0 -10 10 -11 23 0 12 -3 17 -5 11 -3 -8 -16 -8 -44 0 -69 18 -46 41 30 31 36
-5 51 -12 55 -26 4 -10 14 -19 23 -19 13 0 13 2 -4 15 -23 17 -17 19 23 4 24
-8 34 -20 46 -57 9 -26 16 -38 16 -27 1 13 13 26 34 35 23 11 27 15 15 18 -21
4 -23 13 -5 31 10 11 9 12 -2 6 -11 -6 -13 -4 -8 8 12 31 -2 18 -21 -19 -12
-23 -22 -33 -26 -25 -4 6 -1 11 6 11 10 0 11 2 0 8 -10 7 -7 15 10 38 l23 29
-27 -20 c-15 -11 -28 -23 -28 -27 0 -5 -5 -8 -11 -8 -5 0 -7 5 -4 10 6 10 -7
14 -35 11 -8 -1 0 8 17 21 18 13 35 30 38 38 3 8 -5 4 -19 -9 -15 -14 -26 -21
-26 -16 0 4 -8 1 -17 -8 -16 -13 -28 -14 -90 -4 -66 10 -73 14 -73 34 0 18 6
23 28 24 16 1 20 3 10 6 -24 6 -23 12 13 49 l32 33 -35 -17 c-20 -9 -34 -20
-31 -24 2 -5 1 -14 -4 -20 -5 -9 -10 -3 -14 17 l-7 30 -1 -34 c-1 -33 -2 -34
-17 -15 -14 18 -15 18 -4 -4 27 -54 23 -69 -23 -87 -54 -21 -119 -75 -147
-121 -12 -19 -24 -33 -27 -30 -3 2 -5 35 -5 73 0 68 26 152 52 168 18 11 24
-3 9 -22 -8 -9 -9 -14 -3 -10 7 4 14 0 18 -8 3 -8 11 -15 18 -15 9 0 9 3 0 12
-7 7 -12 15 -12 20 0 10 38 30 75 39 25 6 26 7 7 8 -13 1 -36 -6 -51 -14 -16
-8 -31 -12 -34 -9 -15 15 12 39 77 70 73 35 100 41 111 24 3 -5 12 -10 18 -10
7 0 4 5 -6 11 -9 6 -15 14 -12 20 4 5 2 9 -4 9 -5 0 -12 15 -14 33 l-4 32 -1
-37 c-2 -31 -6 -38 -33 -47 -27 -9 -30 -9 -25 6 11 27 19 103 12 103 -3 0 -6
-10 -6 -22z m50 -297 c0 -6 -4 -13 -10 -16 -5 -3 -9 -16 -9 -28 1 -17 2 -18 6
-4 6 22 50 23 81 1 28 -19 28 -33 -1 -64 -37 -40 -50 -85 -44 -144 3 -30 12
-67 21 -84 18 -34 13 -42 -23 -42 -57 0 -94 -41 -157 -177 -27 -57 -52 -103
-57 -103 -5 0 -7 7 -3 15 7 19 62 256 71 306 9 47 -16 106 -58 141 l-32 27 20
33 c31 53 77 98 125 124 48 25 70 30 70 15z m-800 -226 c0 -8 -4 -15 -10 -15
-5 0 -10 7 -10 15 0 8 5 15 10 15 6 0 10 -7 10 -15z m140 -50 c0 -8 -4 -15
-10 -15 -5 0 -10 7 -10 15 0 8 5 15 10 15 6 0 10 -7 10 -15z m430 -15 c0 -11
-14 -11 -50 0 -22 7 -21 8 13 9 20 1 37 -3 37 -9z m-502 -74 c3 -12 -1 -17
-10 -14 -7 3 -15 13 -16 22 -3 12 1 17 10 14 7 -3 15 -13 16 -22z m132 10 c0
-2 3 -11 6 -20 4 -11 1 -16 -10 -16 -9 0 -16 2 -16 4 0 2 -3 11 -6 20 -4 11
-1 16 10 16 9 0 16 -2 16 -4z m280 -18 c0 -6 -7 -7 -16 -4 -9 3 -22 6 -30 6
-9 0 -13 4 -10 9 7 11 56 2 56 -11z m-350 -3 c0 -8 -4 -15 -10 -15 -5 0 -10 7
-10 15 0 8 5 15 10 15 6 0 10 -7 10 -15z m-100 -40 c0 -8 -4 -15 -9 -15 -13 0
-22 16 -14 24 11 11 23 6 23 -9z m560 5 c22 -7 21 -8 -12 -9 -21 -1 -38 4 -38
9 0 11 14 11 50 0z m-352 -49 c3 -8 -1 -12 -9 -9 -7 2 -15 10 -17 17 -3 8 1
12 9 9 7 -2 15 -10 17 -17z m257 -1 c16 -7 13 -9 -17 -9 -20 -1 -40 4 -43 9
-7 12 32 12 60 0z m-323 -25 c6 -14 8 -28 4 -32 -11 -12 -41 12 -44 36 -5 30
26 27 40 -4z m689 -5 c19 -10 26 -30 12 -30 -5 0 -19 9 -33 20 -26 21 -12 27
21 10z m-281 -40 c22 -7 21 -8 -12 -9 -20 -1 -40 4 -43 9 -7 12 19 12 55 0z
m180 -10 c14 -11 21 -20 17 -20 -11 0 -67 29 -67 35 0 11 27 3 50 -15z m-549
-43 c-1 -12 -15 -9 -19 4 -3 6 1 10 8 8 6 -3 11 -8 11 -12z m236 7 c13 -4 21
-10 18 -14 -6 -9 -53 -1 -61 11 -6 10 11 11 43 3z m-480 -20 c8 -21 -19 -46
-40 -38 -9 3 -17 17 -17 30 0 19 5 24 25 24 14 0 28 -7 32 -16z m766 -31 c24
-13 28 -18 15 -21 -20 -4 -58 14 -58 28 0 14 6 13 43 -7z m-208 -23 c4 -6 -6
-10 -24 -10 -16 0 -33 5 -36 10 -4 6 6 10 24 10 16 0 33 -4 36 -10z m45 -100
c0 -11 -14 -11 -50 0 -22 7 -21 8 13 9 20 1 37 -3 37 -9z m-115 -20 c4 -7 -7
-10 -30 -8 -47 3 -57 18 -11 18 19 0 38 -5 41 -10z"/>
<path d="M4637 3318 c4 -31 3 -32 -11 -14 -9 11 -16 15 -16 9 0 -7 5 -15 11
-19 8 -4 8 -8 0 -13 -6 -4 -4 -11 7 -17 15 -10 17 -6 19 24 1 19 7 38 13 42 8
5 6 9 -5 14 -9 3 -18 6 -19 6 -1 0 -1 -15 1 -32z"/>
<path d="M4690 3681 c0 -16 6 -31 15 -35 17 -6 21 9 4 20 -6 3 -9 15 -6 25 3
11 1 19 -4 19 -5 0 -9 -13 -9 -29z"/>
<path d="M4401 3636 c-1 -35 -3 -37 -18 -25 -17 12 -17 12 0 -6 20 -23 41 -14
65 26 9 16 6 14 -9 -6 l-24 -30 -6 40 -6 40 -2 -39z"/>
<path d="M5230 3561 c0 -66 3 -80 18 -84 9 -3 46 -22 81 -43 l63 -36 -4 77
c-3 63 -7 79 -23 88 -11 7 -46 27 -77 44 l-58 33 0 -79z"/>
<path d="M4300 3599 c0 -5 5 -7 10 -4 6 3 10 8 10 11 0 2 -4 4 -10 4 -5 0 -10
-5 -10 -11z"/>
<path d="M4326 3512 c-2 -4 4 -8 14 -8 10 0 16 4 14 8 -3 4 -9 8 -14 8 -5 0
-11 -4 -14 -8z"/>
<path d="M4520 3470 c-9 -6 -10 -10 -3 -10 6 0 15 5 18 10 8 12 4 12 -15 0z"/>
<path d="M4179 3451 c11 -7 10 -10 -5 -14 -13 -3 -10 -5 10 -6 24 -1 27 1 16
14 -7 8 -18 15 -24 15 -6 0 -5 -4 3 -9z"/>
<path d="M4277 3445 c-4 -8 -2 -17 3 -20 6 -4 10 3 10 14 0 25 -6 27 -13 6z"/>
<path d="M5172 3326 c-9 -20 -7 -27 9 -42 16 -15 19 -15 19 -1 0 8 6 18 13 20
7 3 4 6 -6 6 -14 1 -17 6 -12 21 9 28 -10 25 -23 -4z"/>
<path d="M4784 3326 c16 -9 31 -14 34 -11 8 8 0 13 -33 20 l-30 7 29 -16z"/>
<path d="M4770 3296 c0 -2 7 -7 16 -10 8 -3 12 -2 9 4 -6 10 -25 14 -25 6z"/>
<path d="M4715 3264 c-15 -24 -15 -28 -1 -42 13 -14 14 -13 9 8 -4 17 0 28 18
41 18 14 20 19 8 19 -9 0 -24 -12 -34 -26z"/>
<path d="M4905 3242 c-9 -23 22 -62 48 -61 20 2 20 2 2 6 -12 2 -26 13 -33 24
-11 17 -10 21 10 28 l22 8 -22 5 c-13 4 -23 0 -27 -10z"/>
<path d="M5000 3243 c8 -3 24 -13 35 -22 20 -16 20 -16 1 7 -11 12 -26 22 -35
21 -14 0 -14 -1 -1 -6z"/>
<path d="M5066 3235 c-9 -23 -8 -24 16 -17 14 3 19 2 14 -6 -4 -7 -14 -12 -22
-12 -22 0 -11 -24 12 -28 15 -2 16 -1 5 6 -11 8 -5 14 24 29 l38 20 -33 1
c-18 0 -36 6 -40 12 -5 8 -9 6 -14 -5z"/>
<path d="M5160 3230 c0 -5 7 -7 15 -4 8 4 15 8 15 10 0 2 -7 4 -15 4 -8 0 -15
-4 -15 -10z"/>
<path d="M1180 3137 c0 -62 51 -83 104 -44 19 14 17 16 -35 46 -30 17 -57 31
-61 31 -5 0 -8 -15 -8 -33z"/>
<path d="M2865 2953 l-60 -36 4 -304 c2 -167 0 -314 -3 -327 -4 -16 -26 -37
-61 -58 -53 -32 -54 -34 -55 -79 0 -40 -5 -52 -36 -83 -57 -57 -78 -44 -35 23
22 35 18 117 -8 168 -11 23 -21 44 -21 46 0 3 31 23 70 46 100 60 100 60 100
305 0 112 -3 211 -6 220 -3 9 -12 16 -20 16 -13 0 -273 -147 -489 -275 -44
-26 -101 -58 -126 -70 -25 -13 -60 -37 -77 -53 l-32 -30 0 -236 c0 -158 3
-236 10 -236 15 0 56 22 204 108 l128 75 -45 15 c-45 14 -45 14 -106 -22 -96
-56 -128 -44 -118 42 4 40 12 53 52 90 30 27 45 48 41 57 -3 8 -10 15 -15 15
-21 0 -21 34 0 57 19 19 20 23 6 23 -22 0 -22 24 -1 45 20 20 31 10 36 -30 2
-19 9 -30 18 -30 9 0 16 -11 18 -27 4 -36 18 -35 89 7 55 33 60 34 95 22 21
-8 40 -16 44 -20 3 -3 1 -28 -6 -56 -9 -38 -19 -55 -43 -71 l-32 -21 29 7 29
7 -7 -49 c-4 -27 -14 -54 -22 -60 -9 -7 -15 -29 -15 -55 0 -93 -2 -133 -6
-117 -3 13 -38 -4 -176 -84 -95 -55 -194 -113 -220 -129 -56 -33 -63 -35 -71
-13 -3 9 -6 155 -6 325 0 170 -2 309 -4 309 -2 0 -55 -31 -118 -68 -62 -38
-158 -95 -213 -127 -55 -32 -131 -77 -170 -99 -38 -23 -145 -84 -237 -136 -92
-52 -168 -100 -168 -105 0 -6 24 -25 53 -41 154 -90 448 -260 487 -282 25 -13
70 -39 100 -57 30 -18 174 -101 320 -185 146 -84 375 -216 509 -293 252 -145
285 -158 364 -143 19 4 117 54 218 113 101 58 213 122 249 143 36 20 195 112
354 204 159 93 303 176 320 185 17 10 105 61 196 113 91 53 311 180 490 283
477 274 480 276 480 286 0 5 -19 18 -42 30 -23 12 -54 29 -68 39 -36 25 -243
141 -254 143 -5 1 -14 -16 -20 -38 -22 -81 16 -54 -511 -356 -222 -127 -255
-143 -295 -143 -39 1 -74 17 -260 124 -551 315 -543 310 -611 413 -49 76 -69
141 -115 372 -20 105 -40 193 -43 197 -3 3 -33 -10 -66 -29z m-145 -162 c0 -5
-9 -19 -19 -32 -23 -29 -44 -16 -30 19 8 21 49 32 49 13z m-110 -70 c0 -25
-27 -48 -41 -34 -8 8 -7 17 0 32 14 26 41 28 41 2z m-100 -61 c0 -19 -36 -47
-47 -36 -3 3 -3 17 1 31 8 31 46 36 46 5z m-100 -48 c0 -13 -30 -52 -41 -52
-10 0 -13 43 -2 53 9 10 43 9 43 -1z m305 -31 c8 -25 -3 -81 -21 -109 -18 -27
-94 -83 -104 -77 -4 2 -10 23 -13 46 -3 22 -15 51 -27 64 l-22 23 38 25 c69
42 78 46 111 47 22 0 33 -5 38 -19z m-417 -38 c-2 -20 -9 -29 -25 -31 -27 -4
-30 14 -6 40 23 26 35 22 31 -9z m-198 -112 c0 -23 -14 -41 -31 -41 -19 0 -27
29 -12 43 10 10 43 8 43 -2z m326 -293 c0 -13 4 -32 9 -43 l8 -20 -16 20 c-17
20 -23 65 -9 65 4 0 7 -10 8 -22z m5 -80 c0 -10 2 -10 6 0 2 6 9 12 15 12 6 0
6 -6 -2 -15 -13 -16 -50 -21 -50 -7 0 21 29 30 31 10z m169 -64 c0 -6 -6 -17
-14 -24 -8 -6 -17 -21 -19 -33 -3 -12 -4 -4 -4 18 2 41 2 41 -72 62 -30 8 -4
11 37 3 35 -6 42 -5 42 8 0 13 3 12 15 -4 8 -10 15 -24 15 -30z m637 -39 l115
-65 66 36 c52 29 79 38 132 42 154 11 294 -75 268 -166 -7 -25 -21 -39 -63
-63 -30 -17 -57 -34 -59 -38 -3 -4 36 -31 87 -61 51 -29 103 -60 116 -68 l24
-14 -49 -28 c-27 -15 -110 -62 -184 -105 -164 -95 -221 -128 -280 -162 -70
-40 -353 -205 -371 -216 -18 -11 -6 -17 -474 254 -126 73 -254 146 -282 162
-29 15 -55 32 -58 36 -2 5 40 35 95 67 l100 58 -6 70 c-5 59 -4 69 7 59 21
-20 34 -15 16 5 -10 10 -17 25 -17 33 1 18 39 -31 40 -50 0 -18 13 -6 16 15 1
8 -4 18 -12 21 -29 11 -2 21 46 16 49 -5 50 -4 51 24 l2 28 4 -27 c2 -15 14
-35 26 -43 12 -8 16 -15 9 -15 -6 0 -12 -9 -12 -20 0 -17 18 -9 122 52 68 39
136 79 153 88 16 9 54 31 83 49 29 17 55 31 57 31 2 0 26 14 52 30 26 17 51
30 56 30 5 0 61 -29 124 -65z m-722 25 c3 -5 -3 -10 -14 -10 -12 0 -21 5 -21
10 0 6 6 10 14 10 8 0 18 -4 21 -10z m-127 -77 c-5 -38 -10 -79 -12 -93 -3
-14 -5 -29 -5 -34 -1 -5 -4 -7 -7 -4 -7 8 17 198 25 198 4 0 3 -30 -1 -67z
m219 45 c0 -13 4 -43 7 -68 l7 -45 -15 40 c-17 43 -20 77 -9 88 3 4 7 7 7 7 1
0 2 -10 3 -22z m-7 -120 c0 -16 5 -28 10 -28 6 0 10 5 10 12 0 6 3 9 6 5 13
-12 -5 -35 -23 -31 -14 4 -19 16 -21 52 -1 34 1 43 8 32 5 -8 10 -27 10 -42z
m-198 -55 c-2 -7 -8 -13 -14 -13 -5 0 -6 6 -1 13 4 6 7 23 6 37 l-2 25 8 -25
c4 -14 6 -31 3 -37z"/>
<path d="M2570 2000 c0 -5 5 -10 11 -10 5 0 7 5 4 10 -3 6 -8 10 -11 10 -2 0
-4 -4 -4 -10z"/>
<path d="M3455 1920 c-33 -17 -63 -35 -67 -39 -5 -4 16 -21 45 -38 28 -17 91
-54 140 -82 l87 -52 55 31 c31 18 63 43 72 57 16 24 16 28 -4 62 -30 52 -99
83 -193 89 -69 4 -80 1 -135 -28z"/>
<path d="M2483 1769 c1 -17 6 -20 32 -15 16 4 37 13 45 22 13 13 11 13 -19 3
-27 -9 -36 -9 -39 -1 -6 20 -21 13 -19 -9z"/>
<path d="M2550 1754 c-14 -7 -35 -14 -47 -14 -20 0 -23 -5 -23 -35 0 -21 5
-35 13 -35 24 0 39 17 35 41 -2 17 3 24 21 29 14 3 26 11 29 18 4 14 4 14 -28
-4z"/>
<path d="M2517 1523 c-16 -3 -31 -11 -34 -18 -3 -9 -28 -17 -64 -21 -73 -8
-78 -27 -14 -55 53 -23 85 -14 85 26 0 23 1 23 29 9 17 -9 40 -12 55 -8 22 5
26 12 26 40 0 36 -6 38 -83 27z"/>
<path d="M5156 2945 c9 -14 20 -25 25 -25 12 0 -12 38 -28 45 -9 3 -8 -4 3
-20z"/>
<path d="M5046 2913 c-6 -14 -5 -15 5 -6 7 7 10 15 7 18 -3 3 -9 -2 -12 -12z"/>
<path d="M3094 2848 c14 -134 27 -182 59 -215 34 -36 51 -42 43 -15 -3 9 -8
38 -11 64 -18 157 -24 183 -50 206 -42 36 -48 29 -41 -40z"/>
<path d="M3263 2804 c-3 -9 -1 -66 5 -126 11 -113 13 -119 66 -149 17 -10 18
-6 11 98 -8 113 -22 160 -55 181 -17 10 -21 10 -27 -4z"/>
<path d="M1421 2744 c-28 -47 -37 -55 -55 -49 -58 18 -61 17 -89 -25 -15 -23
-27 -46 -27 -51 0 -5 14 -15 30 -24 17 -9 30 -19 30 -24 0 -4 -13 -28 -30 -52
-36 -54 -37 -67 -4 -79 34 -13 30 -15 61 33 49 77 50 77 88 61 19 -8 37 -14
39 -14 7 0 56 85 56 97 0 6 -13 16 -30 23 -16 7 -30 15 -30 19 0 3 16 31 36
61 32 51 33 56 17 67 -34 25 -57 15 -92 -43z"/>
<path d="M3435 2708 c-3 -8 -4 -59 -3 -114 l3 -99 38 -3 37 -3 0 78 c0 83 -12
117 -47 141 -20 12 -23 12 -28 0z"/>
<path d="M3596 2604 c-3 -9 -6 -55 -6 -104 0 -84 1 -88 27 -105 l26 -18 -26
-14 c-21 -10 -27 -21 -27 -46 0 -39 24 -77 49 -77 15 0 19 11 25 68 10 117 9
247 -3 270 -10 19 -40 42 -54 42 -3 0 -8 -7 -11 -16z"/>
<path d="M3774 2512 c-16 -11 -38 -306 -25 -330 13 -24 41 -36 54 -23 6 6 17
78 26 161 l15 150 -24 25 c-25 27 -29 29 -46 17z"/>
<path d="M3310 2431 c0 -10 30 -24 37 -17 3 2 -5 9 -16 16 -12 6 -21 7 -21 1z"/>
<path d="M3937 2408 c-2 -7 -15 -77 -28 -155 -22 -138 -22 -143 -4 -163 24
-27 53 -26 60 3 21 93 45 230 45 256 0 48 -59 95 -73 59z"/>
<path d="M3465 2340 c3 -5 11 -10 16 -10 6 0 7 5 4 10 -3 6 -11 10 -16 10 -6
0 -7 -4 -4 -10z"/>
<path d="M5205 2142 c-11 -11 -144 -90 -295 -177 -151 -88 -329 -190 -395
-228 -105 -61 -284 -164 -705 -406 -63 -37 -297 -172 -519 -300 l-404 -234
-72 -5 c-44 -3 -87 0 -111 8 -22 7 -176 93 -344 190 -316 183 -804 465 -1185
684 -121 70 -225 133 -231 141 -9 12 -13 6 -18 -31 -14 -107 0 -127 147 -210
56 -32 113 -65 127 -74 14 -10 77 -46 140 -82 146 -82 1115 -641 1280 -738 25
-15 60 -32 79 -38 44 -15 138 -15 181 0 32 11 107 53 550 310 52 30 235 135
405 233 171 98 364 210 430 248 265 154 579 335 739 426 93 53 182 108 197
123 27 24 29 31 29 102 0 42 -1 76 -3 76 -1 0 -11 -8 -22 -18z"/>
</g>
</svg>
